<?xml version="1.0" encoding="UTF-8"?>
<!DOCTYPE svg PUBLIC "-//W3C//DTD SVG 1.1//EN" "http://www.w3.org/Graphics/SVG/1.1/DTD/svg11.dtd">
<!-- Creator: CorelDRAW X7 -->
<svg xmlns="http://www.w3.org/2000/svg" xml:space="preserve" width="110.553mm" height="23.5425mm" version="1.1" style="shape-rendering:geometricPrecision; text-rendering:geometricPrecision; image-rendering:optimizeQuality; fill-rule:evenodd; clip-rule:evenodd"
viewBox="0 0 706 150"
 xmlns:xlink="http://www.w3.org/1999/xlink">
 <defs>
  <style type="text/css">
   <![CDATA[
    .fil0 {fill:black}
   ]]>
  </style>
 </defs>
 <g id="Layer_x0020_1">
  <metadata id="CorelCorpID_0Corel-Layer"/>
  <path class="fil0" d="M48 32l79 46c-6,33 -30,57 -60,72 -35,-18 -57,-46 -61,-81l42 24 -17 12 58 -1 -87 -50c-1,-12 -2,-24 -2,-37 24,-1 47,-7 67,-17 21,10 44,15 68,17 0,17 -1,35 -4,52l-43 -26 17 -11 -57 0z"/>
  <path class="fil0" d="M182 64c0,-2 1,-3 5,-3l21 0c7,0 8,4 8,6l15 0c0,-7 -3,-20 -27,-20l-10 0c-25,0 -27,11 -27,17 0,27 49,12 49,22 0,2 -1,3 -5,3l-21 0c-7,0 -8,-3 -8,-5l-15 0c0,6 2,20 27,20l10 0c25,0 27,-11 27,-18 0,-27 -49,-12 -49,-22zm149 -3l21 0c6,0 9,3 9,7l17 0c-3,-20 -21,-21 -30,-21l-12 0c-11,0 -31,2 -31,28 0,27 20,29 31,29l10 0c23,0 31,-12 32,-24l0 -8 -44 0 0 11 28 0c-1,4 -4,6 -9,6l-22 0c-8,0 -10,-7 -10,-14 0,-7 2,-14 10,-14zm345 1l-26 0 0 12 26 0c4,0 6,0 8,-1 1,-1 2,-3 2,-5 0,-2 -1,-4 -2,-5 -2,-1 -4,-1 -8,-1zm16 -12c6,3 10,8 10,18 0,6 -1,11 -4,14 -3,3 -6,5 -9,6l16 15 1 1 -1 0 -21 0 0 0 0 0 -8 -8 0 0 0 -6 -7 0 -19 0 0 13 0 1 0 0 -15 0 -1 0 0 -1 0 -56 0 0 1 0 40 0c5,0 12,0 17,3zm-119 53l15 -32 1 -2 0 -12 24 46 0 1 0 0 17 0 1 0 -1 -1 -28 -56 0 0 0 0 -18 0 -1 0 0 0 -28 56 0 1 0 0 17 0 0 0 1 -1zm-66 -15l-20 -41 -25 0 0 57 15 0 0 -42 20 42 19 0 20 -42 0 42 15 0 0 -57 -25 0 -19 41zm-66 -13c0,8 -2,15 -10,15l-22 0c-8,0 -11,-7 -11,-15l0 -28 -15 0 0 28c0,27 20,29 30,29l13 0c10,0 30,-2 30,-29l0 -28 -15 0 0 28zm-203 -28l0 57 62 0 0 -14 -47 0 0 -8 39 0 0 -13 -39 0 0 -8 47 0 0 -14 -62 0z"/>
 </g>
</svg>
